<svg version="1.2" xmlns="http://www.w3.org/2000/svg" viewBox="0 0 700 700" width="700" height="700">
	<title>noun-pokeball-1519186-svg</title>
	<style>
		.s0 { fill: #000000 } 
	</style>
	<g id="Layer">
		<path id="Layer" fill-rule="evenodd" class="s0" d="m498.5 201.5c39.7 39.7 61.5 92.4 61.5 148.5 0 56.1-21.8 108.8-61.5 148.5-39.7 39.7-92.4 61.5-148.5 61.5-56.1 0-108.8-21.8-148.5-61.5-39.7-39.7-61.5-92.4-61.5-148.5 0-56.1 21.8-108.8 61.5-148.5 39.7-39.7 92.4-61.5 148.5-61.5 56.1 0 108.8 21.8 148.5 61.5zm-351 148.5c0 52.9 20.1 102.6 56.7 140.5l95-94.9c-11.3-12.6-17.5-28.6-17.5-45.6 0-18.3 7.1-35.4 20-48.3 25.7-25.8 67-26.6 93.9-2.5l94.9-95c-37.9-36.6-87.6-56.7-140.5-56.7-54.1 0-105 21-143.2 59.3-38.3 38.2-59.3 89.1-59.3 143.2zm405 0c0-52.8-20.1-102.6-56.7-140.5l-95 94.9c11.3 12.6 17.5 28.6 17.5 45.6 0 18.3-7.1 35.4-20 48.3-13.3 13.4-30.8 20-48.3 20-16.3 0-32.6-5.9-45.6-17.5l-94.9 95c37.9 36.6 87.6 56.8 140.5 56.8 54.1 0 105-21.1 143.2-59.4 38.3-38.2 59.3-89.1 59.3-143.2zm-159.5 43.1c11.6-11.5 17.9-26.8 17.9-43.1 0-16.3-6.3-31.5-17.9-43-11.8-11.9-27.4-17.9-43-17.9-15.6 0-31.2 6-43.1 17.9-11.5 11.5-17.8 26.7-17.8 43 0 16.3 6.3 31.6 17.8 43.1 23.8 23.7 62.4 23.7 86.1 0z"/>
	</g>
</svg>